# xmcd CD Database Entry
#
# Track frame offsets:
# 150
# 5234
# 10000
# 14174
# 19797
# 24725
# 32332
# 35761
# 39242
# 44929
# 49695
# 52120
# 54521
# 62870
# 67182
# 73052
# 79507
# 85096
# 88391
# 92936
# 97810
# 101842
# 106468
# 109984
# 113945
# 120446
# 126137
# 131140
# 138511
# 142420
# 146210
# 149031
# 153549
# 158644
# 161883
# 166338
# 171032
# 174673
# 179372
# 184730
# 188536
# 193266
# 197109
# 201815
# 206842
# 211779
# 215522
# 219742
# 222194
# 226647
# 232896
# 235660
# 238467
# 243215
# 247101
# 251861
# 256252
# 260375
# 265122
# 270300
# 275912
# 290082
# 295141
# 302048
# 307700
#
# Disc length: 4150 seconds
#
# Revision: 4
# Processed by: cddbd v1.4PL0 Copyright (c) Steve Scherf et al.
# Submitted via: tcd 2.0b
#
DISCID=ed103441
DTITLE=Assorted Artists - Television's Greatest Hits in Living Color
DTITLE=
DYEAR=1900
DGENRE=
TTITLE0=Class of '74
TTITLE1=The Young Doctors
TTITLE2=Gigantor
TTITLE3=Cool McCool
TTITLE4=The Go-Go Gophers
TTITLE5=The World of Commander McBragg
TTITLE6=Secret Squirrel
TTITLE7=The Atom Ant Show
TTITLE8=Wacky Races
TTITLE9=Hong Kong Phooey
TTITLE10=Superchicken
TTITLE11=Tom Slick Racer
TTITLE12=H.R. Pufnstuf
TTITLE13=Land of the Lost
TTITLE14=Sigmund and the Sea Monsters
TTITLE15=The Banana Splits
TTITLE16=The Restless Years
TTITLE17=Please Don't Eat the Daisies
TTITLE18=The Ghost and Mrs Muir
TTITLE19=Nanny and the Professor
TTITLE20=Here Come the Brides
TTITLE21=The Flying Nun
TTITLE22=Family Affair
TTITLE23=The Dating Game
TTITLE24=The Newlywed Game
TTITLE25=Let's Make a Deal
TTITLE26=All My Children
TTITLE27=General Hospital
TTITLE28=Peyton Place
TTITLE29=Mary Hartman, Mary Hartman
TTITLE30=Gentle Ben
TTITLE31=Skippy, the Bush Kangaroo
TTITLE32=Life and Times of Grizzly Adams
TTITLE33=The High Chaparral
TTITLE34=The Big Valley
TTITLE35=Cimarron Strip
TTITLE36=Laredo
TTITLE37=The Men from Shiloh
TTITLE38=It Takes a Thief
TTITLE39=The Magician
TTITLE40=Switch
TTITLE41=The Felony Squad
TTITLE42=Police Woman
TTITLE43=The Men
TTITLE44=Cannon
TTITLE45=Judd for the Defense
TTITLE46=Emergency!
TTITLE47=Police Story
TTITLE48=Six Million Dollar Man
TTITLE49=The Bionic Woman
TTITLE50=The Girl from UNCLE
TTITLE51=Night Gallery
TTITLE52=Kolchak: The Night Stalker
TTITLE53=The Invaders
TTITLE54=Land of the Giants
TTITLE55=Lost in Space
TTITLE56=Olympic Fanfare
TTITLE57=Masterpiece Theatre
TTITLE58=Blankety Blanks
TTITLE59=Where the Action Is
TTITLE60=Prisoner (On The Inside)
TTITLE61=Chopper Squad
TTITLE62=Rowan and Martin's Laugh-In
TTITLE63=The Dean Martin Show
TTITLE64=The Carol Burnett Show
EXTD=
EXTT0=
EXTT1=
EXTT2=
EXTT3=
EXTT4=
EXTT5=
EXTT6=
EXTT7=
EXTT8=
EXTT9=
EXTT10=
EXTT11=
EXTT12=
EXTT13=
EXTT14=
EXTT15=
EXTT16=
EXTT17=
EXTT18=
EXTT19=
EXTT20=
EXTT21=
EXTT22=
EXTT23=
EXTT24=
EXTT25=
EXTT26=
EXTT27=
EXTT28=
EXTT29=
EXTT30=
EXTT31=
EXTT32=
EXTT33=
EXTT34=
EXTT35=
EXTT36=
EXTT37=
EXTT38=
EXTT39=
EXTT40=
EXTT41=
EXTT42=
EXTT43=
EXTT44=
EXTT45=
EXTT46=
EXTT47=
EXTT48=
EXTT49=
EXTT50=
EXTT51=
EXTT52=
EXTT53=
EXTT54=
EXTT55=
EXTT56=
EXTT57=
EXTT58=
EXTT59=
EXTT60=
EXTT61=
EXTT62=
EXTT63=
EXTT64=
PLAYORDER=
